<?xml version="1.0" encoding="UTF-8"?>
<svg id="a" xmlns="http://www.w3.org/2000/svg" width="512" height="512" viewBox="0 0 443.405 512">
  <polygon points="0 128 0 384 221.7025 512 443.405 384 443.405 128 221.7025 0 0 128" fill="#D01018" stroke-width="0"/>
  <polygon points="221.7025 256 221.7025 512 0 384 0 128 221.7025 256" fill="#E02028" stroke-width="0"/>
  <polygon points="221.7025 256 443.405 128 443.405 384 221.7025 512 221.7025 256" fill="#C00008" stroke-width="0"/>
  <path
    d="m221.8307,348.416c-14.8481,0-27.564-2.7764-38.144-8.3203-10.584-5.5439-19.6279-12.8398-27.1357-21.8877l20.2236-18.6885c6.144,7.6802,13.0122,13.4844,20.6079,17.4082,7.5923,3.9277,16.2563,5.8877,25.9844,5.8877,11.4316,0,20.0518-2.5996,25.856-7.8076,5.7998-5.2041,8.7041-12.0723,8.7041-20.6079,0-4.6079-.8564-8.6162-2.5601-12.0322-1.708-3.4121-4.6079-6.228-8.7041-8.4478-4.0962-2.2163-9.5601-4.0083-16.3843-5.376l-15.8716-2.8164c-11.6084-2.2158-21.292-5.46-29.0562-9.728-7.7681-4.2637-13.6118-9.856-17.5361-16.7676-3.9277-6.9121-5.8877-15.0601-5.8877-24.4482,0-10.5801,2.5596-19.7119,7.6797-27.3921,5.1201-7.6797,12.416-13.5679,21.8882-17.6641,9.4717-4.0957,20.52-6.1436,33.1519-6.1436,13.48,0,25.1719,2.3477,35.0723,7.0396,9.895,4.6963,18.2603,11.48,25.0884,20.3521l-20.2246,17.9199c-4.6079-5.9717-10.2397-10.752-16.896-14.3359-6.6558-3.584-14.936-5.376-24.832-5.376-10.2397,0-18.1357,2.0483-23.6802,6.144-5.5479,4.0962-8.3198,10.0723-8.3198,17.9199,0,4.9521,1.0239,9.0483,3.0723,12.2881,2.0479,3.2441,5.1597,5.8882,9.3438,7.936,4.1802,2.0479,9.4282,3.6719,15.7441,4.8643l15.8721,3.3276c11.9438,2.2202,21.7598,5.5483,29.4399,9.9844,7.6797,4.4399,13.3516,10.0278,17.0234,16.7676,3.668,6.7441,5.5039,14.8921,5.5039,24.4482,0,11.0962-2.5586,20.7798-7.6797,29.0562-5.1191,8.2803-12.543,14.7637-22.272,19.4561-9.728,4.6914-21.4199,7.04-35.0718,7.04Z"
    fill="#FFF" stroke-width="0"/>
</svg>
