<?xml version="1.0" encoding="UTF-8"?>
<svg id="a" xmlns="http://www.w3.org/2000/svg" width="512" height="512" viewBox="0 0 443.41 512">
  <defs>
    <filter id="b" filterUnits="userSpaceOnUse">
      <feOffset dx="0" dy="0"/>
      <feGaussianBlur result="c" stdDeviation="2"/>
      <feFlood flood-color="#000" flood-opacity=".25"/>
      <feComposite in2="c" operator="in"/>
      <feComposite in="SourceGraphic"/>
    </filter>
    <filter id="d" filterUnits="userSpaceOnUse">
      <feOffset dx="0" dy="0"/>
      <feGaussianBlur result="e" stdDeviation="2"/>
      <feFlood flood-color="#000" flood-opacity=".25"/>
      <feComposite in2="e" operator="in"/>
      <feComposite in="SourceGraphic"/>
    </filter>
  </defs>
  <g filter="url(#b)">
    <polygon points="221.71 0 0 128 0 384 221.71 512 443.41 384 443.41 128 221.71 0" fill="#D01018"/>
    <polygon points="443.41 128 443.41 384 221.71 512 221.71 256 443.41 128" fill="#C00008"/>
    <polygon points="221.71 256 221.71 512 0 384 0 128 221.71 256" fill="#E02028"/>
  </g>
  <g filter="url(#d)">
    <path
      d="M196.37,303.11c3.92,4.74,8.33,8.45,13.22,11.11s10.44,4,16.67,4c8.29,0,14.96-2.29,20-6.89,5.04-4.59,7.56-10.44,7.56-17.56s-1.63-12.52-4.89-16.67c-3.26-4.15-7.52-7.52-12.78-10.11-5.26-2.59-10.85-4.92-16.78-7-3.85-1.33-8.15-3.07-12.89-5.22-4.74-2.15-9.26-4.89-13.55-8.22-4.3-3.33-7.82-7.45-10.56-12.33-2.74-4.89-4.11-10.89-4.11-18,0-7.7,1.92-14.59,5.78-20.67,3.85-6.07,9.18-10.85,16-14.33,6.81-3.48,14.59-5.22,23.33-5.22s15.81,1.59,22.11,4.78c6.29,3.19,11.67,7.26,16.11,12.22,4.44,4.97,7.92,10.19,10.45,15.67l-16.22,9.33c-1.93-3.85-4.37-7.63-7.33-11.33-2.97-3.7-6.56-6.74-10.78-9.11-4.22-2.37-9.37-3.56-15.44-3.56-8.45,0-14.59,2.04-18.44,6.11-3.85,4.08-5.78,8.63-5.78,13.67,0,4.3,1.11,8.26,3.33,11.89,2.22,3.63,5.96,7.04,11.22,10.22,5.26,3.19,12.41,6.33,21.44,9.44,4.15,1.48,8.52,3.41,13.11,5.78,4.59,2.37,8.85,5.37,12.78,9,3.92,3.63,7.15,8,9.67,13.11,2.52,5.11,3.78,11.22,3.78,18.33s-1.3,12.96-3.89,18.44c-2.59,5.48-6.15,10.15-10.66,14-4.52,3.85-9.63,6.82-15.33,8.89-5.7,2.07-11.67,3.11-17.89,3.11-8.44,0-16.26-1.82-23.44-5.45-7.19-3.63-13.48-8.44-18.89-14.44-5.41-6-9.82-12.41-13.22-19.22l15.11-10.22c3.56,6.22,7.29,11.7,11.22,16.44Z"
      fill="#fff"/>
  </g>
</svg>
